<svg xmlns="http://www.w3.org/2000/svg" xmlns:xlink="http://www.w3.org/1999/xlink" viewBox="0 0 157 157"><defs><linearGradient id="a" x1="34.98" y1="42.44" x2="145.41" y2="106.2" gradientUnits="userSpaceOnUse"><stop offset="0" stop-color="#7341f1"/><stop offset="0.12" stop-color="#7747f1" stop-opacity="0.97"/><stop offset="0.29" stop-color="#8357f2" stop-opacity="0.89"/><stop offset="0.49" stop-color="#9772f4" stop-opacity="0.76"/><stop offset="0.72" stop-color="#b398f6" stop-opacity="0.57"/><stop offset="0.96" stop-color="#d6c8f9" stop-opacity="0.34"/><stop offset="1" stop-color="#dcd0fa" stop-opacity="0.3"/></linearGradient><clipPath id="c"><polygon points="53.87 37.71 37.71 37.71 37.71 53.87 37.71 70.32 37.71 86.48 37.71 119.09 53.87 119.09 53.87 86.48 156.8 86.48 156.8 70.32 53.87 70.32 53.87 53.87 156.8 53.87 156.8 37.71 53.87 37.71" fill="url(#a)"/></clipPath><linearGradient id="d" x1="34.98" y1="42.44" x2="159.53" y2="114.35" xlink:href="#a"/></defs><title>carrieforde_logo-color</title><polygon points="156.8 21.55 156.8 0 21.55 0 0 0 0 21.55 0 135.25 0 156.8 21.55 156.8 156.8 156.8 156.8 135.25 21.55 135.25 21.55 21.55 156.8 21.55" fill="#323036"/><polygon points="53.87 37.71 37.71 37.71 37.71 53.87 37.71 70.32 37.71 86.48 37.71 119.09 53.87 119.09 53.87 86.48 156.8 86.48 156.8 70.32 53.87 70.32 53.87 53.87 156.8 53.87 156.8 37.71 53.87 37.71" fill="url(#a)"/><g clip-path="url(#c)"><rect x="37.71" y="37.71" width="119.09" height="81.38" fill="url(#d)"/></g><rect x="70.4" y="102.13" width="86.4" height="16.16" fill="#d7d7da"/></svg>